<svg width="12" height="13" viewBox="0 0 12 13" fill="none" xmlns="http://www.w3.org/2000/svg">
<path d="M3.89062 6.50188H11.2734" stroke="#333333" stroke-linecap="round" stroke-linejoin="round"/>
<path d="M9.51562 8.25969L11.2734 6.50188L9.51562 4.74406" stroke="#333333" stroke-linecap="round" stroke-linejoin="round"/>
<path d="M7.75779 8.60938V10.7188C7.76582 10.8967 7.70306 11.0705 7.58324 11.2023C7.46342 11.3341 7.29629 11.413 7.11841 11.4219H1.36544C1.18765 11.4129 1.02064 11.3339 0.900921 11.2021C0.781201 11.0704 0.718506 10.8966 0.726537 10.7188V2.28125C0.718381 2.10338 0.781033 1.92952 0.900778 1.79774C1.02052 1.66596 1.1876 1.58699 1.36544 1.57812H7.11841C7.29629 1.58699 7.46342 1.66594 7.58324 1.79771C7.70306 1.92948 7.76582 2.10333 7.75779 2.28125V4.39062" stroke="#333333" stroke-linecap="round" stroke-linejoin="round"/>
</svg>
