<svg width="317" height="349" viewBox="0 0 317 349" fill="none" xmlns="http://www.w3.org/2000/svg">
<g clip-path="url(#clip0_85_2261)">
<path d="M220.122 70.8045C198.148 67.288 173.123 65.4116 147.062 65.4116C123.212 65.4116 100.233 66.9808 79.6682 69.9395C79.673 69.6228 79.6776 69.3062 79.6917 68.9895C80.2369 50.6081 87.9308 33.1696 101.129 20.4013C114.327 7.63304 131.982 0.547907 150.321 0.660251C168.66 0.772595 186.228 8.07351 199.269 21.0025C212.311 33.9316 219.791 51.463 220.113 69.8497C220.118 70.1711 220.122 70.4878 220.122 70.8045Z" fill="#B14BEC"/>
<g opacity="0.1">
<path d="M159.106 0.633975C149.352 -0.687103 139.43 0.0616455 129.983 2.83169C120.537 5.60173 111.776 10.3313 104.269 16.7137C96.7613 23.0962 90.6753 30.9892 86.4049 39.8812C82.1345 48.7732 79.775 58.4657 79.4793 68.3306C79.465 68.6473 79.4604 68.964 79.4558 69.2807C85.5655 68.4016 91.8924 67.6484 98.3877 67.0194C99.1822 50.5849 105.689 34.9479 116.78 22.8217C127.871 10.6956 142.846 2.84564 159.106 0.633975Z" fill="white"/>
</g>
<path d="M250.845 76.3912C240.73 73.6415 230.47 71.4577 220.113 69.8498C203.137 67.212 186.023 65.5628 168.858 64.9106C161.707 64.6175 154.425 64.4663 147.062 64.4663C141.227 64.4663 135.439 64.5608 129.731 64.7499C112.986 65.246 96.2816 66.6613 79.6916 68.9895C67.4109 70.6852 55.2493 73.1574 43.2796 76.3912C15.3708 84.1284 0 94.4983 0 105.587C0 116.675 15.3708 127.045 43.2796 134.782C62.9068 140.227 87.106 143.937 113.474 145.639C124.357 146.348 135.608 146.707 147.062 146.707C158.554 146.707 169.843 146.343 180.759 145.634C204.756 144.079 226.957 140.86 245.537 136.181C245.636 136.153 245.731 136.129 245.83 136.105C247.084 135.794 248.318 135.467 249.539 135.141C249.977 135.018 250.411 134.9 250.845 134.782C250.869 134.772 250.894 134.764 250.92 134.758C251.335 134.645 251.745 134.527 252.155 134.413C252.975 134.177 253.786 133.945 254.583 133.704C254.62 133.695 254.653 133.686 254.686 133.676C255.379 133.468 256.058 133.26 256.732 133.052C257.283 132.877 257.83 132.707 258.372 132.532C258.768 132.405 259.16 132.277 259.546 132.149C259.829 132.055 260.107 131.965 260.38 131.871C260.753 131.748 261.125 131.62 261.493 131.492C261.648 131.44 261.804 131.388 261.955 131.332C262.308 131.214 262.652 131.091 262.996 130.968C263.369 130.835 263.741 130.698 264.109 130.566C264.415 130.457 264.722 130.344 265.023 130.23C265.278 130.131 265.528 130.037 265.782 129.942C266.475 129.682 267.154 129.413 267.823 129.148C268.158 129.011 268.492 128.879 268.822 128.742C269.147 128.609 269.477 128.472 269.798 128.335C270.326 128.113 270.844 127.891 271.353 127.669C271.599 127.555 271.848 127.447 272.089 127.343C272.273 127.258 272.452 127.177 272.636 127.092C272.767 127.035 272.9 126.974 273.027 126.913C273.503 126.695 273.974 126.473 274.436 126.251C276.208 125.4 277.863 124.53 279.399 123.642C289.039 118.107 294.125 111.967 294.125 105.587C294.124 94.4983 278.754 84.1284 250.845 76.3912ZM250.59 133.875C230.94 139.324 206.674 143.034 180.236 144.722C169.484 145.407 158.37 145.762 147.062 145.762C135.792 145.762 124.715 145.412 113.997 144.727C87.5161 143.044 63.2131 139.334 43.5341 133.875C16.0684 126.255 0.942707 116.212 0.942707 105.587C0.944242 104.648 1.06143 103.713 1.29162 102.803C3.69534 93.2174 18.4817 84.2466 43.5341 77.2987C55.4134 74.09 67.4818 71.6322 79.6682 69.9396C96.3579 67.5981 113.163 66.1781 130.009 65.6857C135.627 65.5014 141.312 65.41 147.062 65.4116C154.326 65.4116 161.509 65.5581 168.57 65.8417C185.836 66.4881 203.049 68.1452 220.122 70.8045C230.39 72.4052 240.561 74.5733 250.59 77.2987C275.638 84.2466 290.42 93.2127 292.828 102.793C293.062 103.706 293.181 104.644 293.182 105.587C293.182 116.212 278.056 126.255 250.59 133.875Z" fill="#3F3D56"/>
<path d="M293.856 106.017C293.856 112.331 288.666 118.306 279.399 123.642C277.858 124.53 276.199 125.4 274.436 126.251C273.974 126.473 273.503 126.695 273.027 126.912C272.9 126.974 272.767 127.035 272.636 127.092C272.452 127.177 272.273 127.258 272.089 127.343C271.848 127.447 271.599 127.555 271.353 127.669C270.844 127.891 270.326 128.113 269.798 128.335C269.477 128.472 269.147 128.609 268.822 128.742C268.492 128.879 268.158 129.011 267.823 129.148C267.154 129.413 266.475 129.682 265.782 129.942C265.528 130.037 265.278 130.131 265.023 130.23C264.721 130.344 264.415 130.457 264.109 130.566C263.741 130.698 263.369 130.835 262.996 130.968C262.652 131.091 262.308 131.214 261.955 131.332C261.804 131.388 261.648 131.44 261.493 131.492C261.125 131.62 260.753 131.748 260.38 131.871C260.107 131.965 259.829 132.055 259.546 132.149C259.159 132.277 258.768 132.405 258.372 132.532C257.83 132.707 257.283 132.877 256.732 133.052C256.058 133.26 255.379 133.468 254.686 133.676C254.653 133.686 254.62 133.695 254.583 133.704C253.786 133.945 252.975 134.177 252.155 134.413C251.745 134.527 251.335 134.645 250.92 134.758C250.894 134.764 250.869 134.772 250.845 134.782C250.411 134.9 249.977 135.018 249.539 135.141C248.323 135.463 247.083 135.789 245.83 136.105C245.731 136.129 245.636 136.153 245.537 136.181C227.461 140.709 205.284 144.008 180.74 145.601C169.989 146.296 158.78 146.664 147.265 146.664C135.646 146.664 124.343 146.291 113.507 145.582C48.8179 141.352 0.674072 125.244 0.674072 106.017C0.679165 104.847 0.857008 103.684 1.20181 102.566C1.23012 102.647 1.25843 102.722 1.29157 102.803C8.01756 120.518 55.7518 134.834 117.688 138.327C127.176 138.866 137.004 139.145 147.062 139.145C157.163 139.145 167.029 138.861 176.555 138.322C238.439 134.815 286.126 120.494 292.828 102.793C292.941 102.51 293.04 102.226 293.125 101.943C293.603 103.248 293.85 104.626 293.856 106.017Z" fill="#3F3D56"/>
<path d="M43.2087 100.929C35.3641 100.929 27.0269 99.2368 27.0269 96.1002C27.0269 92.9636 35.3642 91.2712 43.2087 91.2712C51.0533 91.2712 59.3906 92.9636 59.3906 96.1002C59.3906 99.2368 51.0533 100.929 43.2087 100.929ZM43.2087 92.2165C34.228 92.2165 27.9696 94.2634 27.9696 96.1002C27.9696 97.937 34.2281 99.9838 43.2087 99.9838C52.1894 99.9838 58.4479 97.937 58.4479 96.1002C58.4479 94.2634 52.1894 92.2165 43.2087 92.2165Z" fill="#3F3D56"/>
<path d="M76.6747 123.143C68.8302 123.143 60.4929 121.451 60.4929 118.315C60.4929 115.178 68.8302 113.486 76.6747 113.486C84.5194 113.486 92.8567 115.178 92.8567 118.315C92.8567 121.451 84.5194 123.143 76.6747 123.143ZM76.6747 114.431C67.6941 114.431 61.4356 116.478 61.4356 118.315C61.4356 120.151 67.6941 122.198 76.6747 122.198C85.6554 122.198 91.914 120.151 91.914 118.315C91.914 116.478 85.6554 114.431 76.6747 114.431Z" fill="#3F3D56"/>
<path d="M250.604 100.929C242.76 100.929 234.422 99.2368 234.422 96.1002C234.422 92.9636 242.76 91.2712 250.604 91.2712C258.449 91.2712 266.786 92.9636 266.786 96.1002C266.786 99.2368 258.449 100.929 250.604 100.929ZM250.604 92.2165C241.623 92.2165 235.365 94.2634 235.365 96.1002C235.365 97.937 241.624 99.9838 250.604 99.9838C259.585 99.9838 265.843 97.937 265.843 96.1002C265.843 94.2634 259.585 92.2165 250.604 92.2165Z" fill="#3F3D56"/>
<path d="M217.138 123.143C209.293 123.143 200.956 121.451 200.956 118.315C200.956 115.178 209.293 113.486 217.138 113.486C224.983 113.486 233.32 115.178 233.32 118.315C233.32 121.451 224.983 123.143 217.138 123.143ZM217.138 114.431C208.157 114.431 201.899 116.478 201.899 118.315C201.899 120.151 208.157 122.198 217.138 122.198C226.119 122.198 232.377 120.151 232.377 118.315C232.377 116.478 226.119 114.431 217.138 114.431Z" fill="#3F3D56"/>
<path d="M146.906 133.542C139.062 133.542 130.725 131.849 130.725 128.713C130.725 125.576 139.062 123.884 146.906 123.884C154.751 123.884 163.088 125.576 163.088 128.713C163.088 131.849 154.751 133.542 146.906 133.542ZM146.906 124.829C137.926 124.829 131.667 126.876 131.667 128.713C131.667 130.55 137.926 132.597 146.906 132.597C155.887 132.597 162.146 130.55 162.146 128.713C162.146 126.876 155.887 124.829 146.906 124.829Z" fill="#3F3D56"/>
<path d="M158.836 232.881C169.772 232.881 178.638 223.991 178.638 213.024C178.638 202.058 169.772 193.167 158.836 193.167C147.899 193.167 139.033 202.058 139.033 213.024C139.033 223.991 147.899 232.881 158.836 232.881Z" fill="#2F2E41"/>
<path d="M151.305 226.07L141.668 230.91L144.362 236.304L153.999 231.464L151.305 226.07Z" fill="#2F2E41"/>
<path d="M145.632 235.757C146.204 234.887 144.793 232.944 142.481 231.416C140.17 229.887 137.833 229.353 137.261 230.222C136.69 231.091 138.1 233.035 140.412 234.563C142.723 236.092 145.061 236.626 145.632 235.757Z" fill="#2F2E41"/>
<path d="M166.366 226.07L163.672 231.464L173.31 236.304L176.004 230.91L166.366 226.07Z" fill="#2F2E41"/>
<path d="M177.26 234.563C179.571 233.035 180.982 231.091 180.41 230.222C179.839 229.353 177.501 229.887 175.19 231.416C172.878 232.944 171.468 234.887 172.039 235.757C172.611 236.626 174.948 236.092 177.26 234.563Z" fill="#2F2E41"/>
<path d="M157.449 214.954C161.187 214.954 164.217 211.915 164.217 208.167C164.217 204.419 161.187 201.38 157.449 201.38C153.712 201.38 150.681 204.419 150.681 208.167C150.681 211.915 153.712 214.954 157.449 214.954Z" fill="white"/>
<path d="M159.096 206.866C159.973 205.986 159.968 204.555 159.084 203.669C158.201 202.783 156.773 202.778 155.896 203.658C155.019 204.537 155.024 205.969 155.907 206.855C156.791 207.741 158.218 207.746 159.096 206.866Z" fill="#3F3D56"/>
<path d="M174.457 191.422C174.755 184.07 168.437 177.844 160.345 177.514C152.252 177.185 145.451 182.877 145.153 190.228C144.856 197.58 150.481 199.25 158.573 199.58C166.665 199.909 174.159 198.773 174.457 191.422Z" fill="#B14BEC"/>
<path d="M185.872 223.422C187.174 222.301 185.343 218.019 181.781 213.858C178.219 209.698 174.276 207.234 172.973 208.355C171.67 209.477 173.502 213.758 177.064 217.919C180.626 222.08 184.569 224.543 185.872 223.422Z" fill="#2F2E41"/>
<path d="M140.663 217.919C144.225 213.758 146.056 209.477 144.754 208.355C143.451 207.234 139.508 209.698 135.946 213.858C132.384 218.019 130.552 222.301 131.855 223.422C133.157 224.543 137.101 222.079 140.663 217.919Z" fill="#2F2E41"/>
<path d="M164.275 220.85C164.489 222.03 164.227 223.248 163.546 224.234C162.865 225.221 161.821 225.896 160.644 226.111C159.466 226.326 158.252 226.063 157.268 225.38C156.284 224.698 155.611 223.651 155.396 222.47L155.395 222.462C154.951 220.003 156.847 219.133 159.299 218.688C161.751 218.242 163.831 218.391 164.275 220.85Z" fill="white"/>
<path d="M125.38 234.147C125.13 234.147 124.89 234.047 124.713 233.87C124.537 233.692 124.437 233.452 124.437 233.201V177.429C124.437 177.178 124.537 176.938 124.713 176.761C124.89 176.583 125.13 176.484 125.38 176.484C125.63 176.484 125.87 176.583 126.047 176.761C126.223 176.938 126.323 177.178 126.323 177.429V233.201C126.323 233.452 126.223 233.692 126.047 233.87C125.87 234.047 125.63 234.147 125.38 234.147Z" fill="#CCCCCC"/>
<path d="M111.239 284.247C110.989 284.247 110.75 284.148 110.573 283.97C110.396 283.793 110.297 283.553 110.297 283.302V242.654C110.297 242.404 110.396 242.163 110.573 241.986C110.75 241.809 110.989 241.709 111.239 241.709C111.489 241.709 111.729 241.809 111.906 241.986C112.083 242.163 112.182 242.404 112.182 242.654V283.302C112.182 283.553 112.083 283.793 111.906 283.97C111.729 284.148 111.489 284.247 111.239 284.247Z" fill="#CCCCCC"/>
<path d="M147.534 250.689C147.284 250.689 147.044 250.59 146.867 250.412C146.69 250.235 146.591 249.995 146.591 249.744V193.972C146.591 193.721 146.69 193.481 146.867 193.303C147.044 193.126 147.284 193.026 147.534 193.026C147.784 193.026 148.023 193.126 148.2 193.303C148.377 193.481 148.476 193.721 148.476 193.972V249.744C148.476 249.995 148.377 250.235 148.2 250.412C148.023 250.59 147.784 250.689 147.534 250.689Z" fill="#CCCCCC"/>
<path d="M133.864 290.864C133.614 290.864 133.375 290.765 133.198 290.588C133.021 290.41 132.922 290.17 132.922 289.919V267.232C132.922 266.981 133.021 266.741 133.198 266.564C133.375 266.386 133.614 266.287 133.864 266.287C134.114 266.287 134.354 266.386 134.531 266.564C134.708 266.741 134.807 266.981 134.807 267.232V289.919C134.807 290.17 134.708 290.41 134.531 290.588C134.354 290.765 134.114 290.864 133.864 290.864Z" fill="#CCCCCC"/>
<path d="M153.19 174.593C152.94 174.593 152.7 174.493 152.523 174.316C152.346 174.139 152.247 173.898 152.247 173.648V150.961C152.247 150.71 152.346 150.47 152.523 150.292C152.7 150.115 152.94 150.015 153.19 150.015C153.44 150.015 153.68 150.115 153.856 150.292C154.033 150.47 154.132 150.71 154.132 150.961V173.648C154.132 173.898 154.033 174.139 153.856 174.316C153.68 174.493 153.44 174.593 153.19 174.593Z" fill="#CCCCCC"/>
<path d="M106.055 184.519C105.805 184.519 105.565 184.419 105.388 184.242C105.211 184.065 105.112 183.824 105.112 183.573V160.886C105.112 160.636 105.211 160.395 105.388 160.218C105.565 160.041 105.805 159.941 106.055 159.941C106.305 159.941 106.544 160.041 106.721 160.218C106.898 160.395 106.997 160.636 106.997 160.886V183.573C106.997 183.824 106.898 184.065 106.721 184.242C106.544 184.419 106.305 184.519 106.055 184.519Z" fill="#CCCCCC"/>
<path d="M188.07 186.882C187.82 186.882 187.58 186.782 187.403 186.605C187.227 186.428 187.127 186.187 187.127 185.937V163.25C187.127 162.999 187.227 162.758 187.403 162.581C187.58 162.404 187.82 162.304 188.07 162.304C188.32 162.304 188.56 162.404 188.736 162.581C188.913 162.758 189.013 162.999 189.013 163.25V185.937C189.013 186.187 188.913 186.428 188.736 186.605C188.56 186.782 188.32 186.882 188.07 186.882Z" fill="#CCCCCC"/>
<path d="M186.185 257.779C185.935 257.779 185.695 257.68 185.518 257.502C185.341 257.325 185.242 257.085 185.242 256.834V229.42C185.242 229.17 185.341 228.929 185.518 228.752C185.695 228.575 185.935 228.475 186.185 228.475C186.435 228.475 186.674 228.575 186.851 228.752C187.028 228.929 187.127 229.17 187.127 229.42V256.834C187.127 257.085 187.028 257.325 186.851 257.502C186.674 257.68 186.435 257.779 186.185 257.779Z" fill="#CCCCCC"/>
<path d="M167.33 281.884C167.08 281.884 166.841 281.784 166.664 281.607C166.487 281.43 166.388 281.189 166.388 280.939V240.291C166.388 240.04 166.487 239.8 166.664 239.623C166.841 239.445 167.08 239.346 167.33 239.346C167.58 239.346 167.82 239.445 167.997 239.623C168.174 239.8 168.273 240.04 168.273 240.291V280.939C168.273 281.189 168.174 281.43 167.997 281.607C167.82 281.784 167.58 281.884 167.33 281.884Z" fill="#CCCCCC"/>
<path d="M171.101 212.405C170.851 212.405 170.612 212.305 170.435 212.128C170.258 211.951 170.159 211.71 170.159 211.46V155.687C170.159 155.437 170.258 155.196 170.435 155.019C170.612 154.842 170.851 154.742 171.101 154.742C171.351 154.742 171.591 154.842 171.768 155.019C171.945 155.196 172.044 155.437 172.044 155.687V211.46C172.044 211.71 171.945 211.951 171.768 212.128C171.591 212.305 171.351 212.405 171.101 212.405Z" fill="#CCCCCC"/>
<path d="M286.674 331.085C288.023 329.953 286.2 325.54 282.601 321.23C279.002 316.921 274.991 314.345 273.642 315.478C272.293 316.611 274.116 321.023 277.715 325.333C281.314 329.643 285.325 332.218 286.674 331.085Z" fill="#2F2E41"/>
<path d="M277.825 326.184C281.37 315.519 275.622 303.991 264.986 300.436C254.35 296.881 242.854 302.645 239.309 313.31C235.763 323.975 241.511 335.503 252.147 339.058C262.783 342.613 274.28 336.849 277.825 326.184Z" fill="#2F2E41"/>
<path d="M267.159 335.722H260.992V346.802H267.159V335.722Z" fill="#2F2E41"/>
<path d="M254.825 335.722H248.658V346.802H254.825V335.722Z" fill="#2F2E41"/>
<path d="M262.02 348.863C264.858 348.863 267.159 347.998 267.159 346.931C267.159 345.864 264.858 344.998 262.02 344.998C259.181 344.998 256.88 345.864 256.88 346.931C256.88 347.998 259.181 348.863 262.02 348.863Z" fill="#2F2E41"/>
<path d="M249.686 348.606C252.524 348.606 254.825 347.741 254.825 346.673C254.825 345.606 252.524 344.741 249.686 344.741C246.847 344.741 244.546 345.606 244.546 346.673C244.546 347.741 246.847 348.606 249.686 348.606Z" fill="#2F2E41"/>
<path d="M252.193 294.159C254.005 286.84 262.006 282.532 270.064 284.538C278.121 286.544 283.184 294.105 281.371 301.425C279.558 308.744 273.545 308.768 265.487 306.762C257.43 304.756 250.38 301.479 252.193 294.159Z" fill="#CCCCCC"/>
<path d="M244.873 314.664C245.627 313.069 242.133 309.824 237.068 307.415C232.003 305.006 227.286 304.346 226.531 305.941C225.777 307.535 229.272 310.78 234.337 313.189C239.402 315.598 244.119 316.258 244.873 314.664Z" fill="#2F2E41"/>
<path d="M255.532 322.238C259.27 322.238 262.3 319.2 262.3 315.452C262.3 311.704 259.27 308.665 255.532 308.665C251.794 308.665 248.764 311.704 248.764 315.452C248.764 319.2 251.794 322.238 255.532 322.238Z" fill="white"/>
<path d="M252.75 315.281C253.996 315.281 255.006 314.269 255.006 313.019C255.006 311.77 253.996 310.757 252.75 310.757C251.504 310.757 250.494 311.77 250.494 313.019C250.494 314.269 251.504 315.281 252.75 315.281Z" fill="#3F3D56"/>
<path d="M255.474 332.457C257.036 332.457 258.302 331.188 258.302 329.622C258.302 328.055 257.036 326.786 255.474 326.786C253.912 326.786 252.646 328.055 252.646 329.622C252.646 331.188 253.912 332.457 255.474 332.457Z" fill="white"/>
<path d="M316.529 349H205.289C205.164 349 205.044 348.95 204.956 348.862C204.868 348.773 204.818 348.653 204.818 348.527C204.818 348.402 204.868 348.282 204.956 348.193C205.044 348.104 205.164 348.055 205.289 348.055H316.529C316.654 348.055 316.774 348.104 316.862 348.193C316.95 348.282 317 348.402 317 348.527C317 348.653 316.95 348.773 316.862 348.862C316.774 348.95 316.654 349 316.529 349Z" fill="#3F3D56"/>
</g>
<defs>
<clipPath id="clip0_85_2261">
<rect width="317" height="349" fill="white"/>
</clipPath>
</defs>
</svg>
