<svg width="16" height="16" viewBox="0 0 16 16" fill="none" xmlns="http://www.w3.org/2000/svg">
<g clipPath="url(#clip0_67_1939)">
<path d="M8.67045 2.36364H11.1023V10.4773C11.1023 11.2273 10.9337 11.8788 10.5966 12.4318C10.2633 12.9848 9.79924 13.411 9.20455 13.7102C8.60985 14.0095 7.91856 14.1591 7.13068 14.1591C6.42992 14.1591 5.79356 14.036 5.22159 13.7898C4.65341 13.5398 4.20265 13.161 3.86932 12.6534C3.53598 12.142 3.37121 11.5 3.375 10.7273H5.82386C5.83144 11.0341 5.89394 11.2973 6.01136 11.517C6.13258 11.733 6.29735 11.8996 6.50568 12.017C6.7178 12.1307 6.9678 12.1875 7.25568 12.1875C7.55871 12.1875 7.81439 12.1231 8.02273 11.9943C8.23485 11.8617 8.39583 11.6686 8.50568 11.4148C8.61553 11.161 8.67045 10.8485 8.67045 10.4773V2.36364Z" fill="#B14BEC"/>
</g>
<defs>
<clipPath id="clip0_67_1939">
<rect width="16" height="16" fill="white"/>
</clipPath>
</defs>
</svg>
